<mxfile host="65bd71144e">
    <diagram id="ng4Kd8hOpdcPiHU1NTaW" name="Page-1">
        <mxGraphModel dx="977" dy="1572" grid="1" gridSize="10" guides="1" tooltips="1" connect="1" arrows="1" fold="1" page="1" pageScale="1" pageWidth="827" pageHeight="1169" background="#ffffff" math="0" shadow="0">
            <root>
                <mxCell id="0"/>
                <mxCell id="1" parent="0"/>
                <mxCell id="2" value="&lt;p&gt;&lt;font color=&quot;#330000&quot;&gt;Operant chamber&lt;/font&gt;&lt;/p&gt;" style="rounded=0;whiteSpace=wrap;html=1;fillColor=#FFFFCC;" vertex="1" parent="1">
                    <mxGeometry x="10" y="110" width="170" height="50" as="geometry"/>
                </mxCell>
                <mxCell id="3" value="&lt;p&gt;&lt;font color=&quot;#330000&quot;&gt;Syringe pump motor&lt;/font&gt;&lt;/p&gt;" style="rounded=0;whiteSpace=wrap;html=1;fillColor=#f8cecc;strokeColor=#b85450;" vertex="1" parent="1">
                    <mxGeometry x="50" y="170" width="130" height="30" as="geometry"/>
                </mxCell>
                <mxCell id="4" value="&lt;p&gt;&lt;font color=&quot;#330000&quot;&gt;Lick sensor&lt;/font&gt;&lt;/p&gt;" style="rounded=0;whiteSpace=wrap;html=1;fillColor=#f8cecc;strokeColor=#b85450;" vertex="1" parent="1">
                    <mxGeometry x="50" y="210" width="130" height="30" as="geometry"/>
                </mxCell>
                <mxCell id="5" value="&lt;p&gt;&lt;font color=&quot;#330000&quot;&gt;Reward LED&lt;/font&gt;&lt;/p&gt;" style="rounded=0;whiteSpace=wrap;html=1;fillColor=#dae8fc;strokeColor=#6c8ebf;" vertex="1" parent="1">
                    <mxGeometry x="50" y="250" width="130" height="30" as="geometry"/>
                </mxCell>
                <mxCell id="6" value="&lt;p&gt;&lt;font color=&quot;#330000&quot;&gt;Buzzer&lt;/font&gt;&lt;/p&gt;" style="rounded=0;whiteSpace=wrap;html=1;fillColor=#f8cecc;strokeColor=#b85450;" vertex="1" parent="1">
                    <mxGeometry x="50" y="290" width="130" height="30" as="geometry"/>
                </mxCell>
                <mxCell id="7" value="&lt;p&gt;&lt;font color=&quot;#330000&quot;&gt;LED1&lt;/font&gt;&lt;/p&gt;" style="rounded=0;whiteSpace=wrap;html=1;fillColor=#dae8fc;strokeColor=#6c8ebf;" vertex="1" parent="1">
                    <mxGeometry x="50" y="330" width="130" height="30" as="geometry"/>
                </mxCell>
                <mxCell id="8" value="&lt;p&gt;&lt;font color=&quot;#330000&quot;&gt;IR sensor1&lt;/font&gt;&lt;/p&gt;" style="rounded=0;whiteSpace=wrap;html=1;fillColor=#dae8fc;strokeColor=#6c8ebf;" vertex="1" parent="1">
                    <mxGeometry x="50" y="370" width="130" height="30" as="geometry"/>
                </mxCell>
                <mxCell id="13" value="&lt;p&gt;&lt;font color=&quot;#330000&quot;&gt;LED5&lt;/font&gt;&lt;/p&gt;" style="rounded=0;whiteSpace=wrap;html=1;fillColor=#dae8fc;strokeColor=#6c8ebf;" vertex="1" parent="1">
                    <mxGeometry x="50" y="440" width="130" height="30" as="geometry"/>
                </mxCell>
                <mxCell id="14" value="&lt;p&gt;&lt;font color=&quot;#330000&quot;&gt;IR sensor5&lt;/font&gt;&lt;/p&gt;" style="rounded=0;whiteSpace=wrap;html=1;fillColor=#dae8fc;strokeColor=#6c8ebf;" vertex="1" parent="1">
                    <mxGeometry x="50" y="480" width="130" height="30" as="geometry"/>
                </mxCell>
                <mxCell id="15" value="" style="endArrow=none;dashed=1;html=1;entryX=0.5;entryY=1;entryDx=0;entryDy=0;exitX=0.5;exitY=0;exitDx=0;exitDy=0;strokeColor=#330000;" edge="1" parent="1" source="13" target="8">
                    <mxGeometry x="50" y="170" width="50" height="50" as="geometry">
                        <mxPoint x="142.85714285714286" y="420" as="sourcePoint"/>
                        <mxPoint x="161.42857142857144" y="460" as="targetPoint"/>
                    </mxGeometry>
                </mxCell>
                <mxCell id="18" value="Digital blue&lt;br&gt;Analogue red" style="text;html=1;align=center;verticalAlign=middle;whiteSpace=wrap;rounded=0;fontColor=#330000;" vertex="1" parent="1">
                    <mxGeometry x="60" y="520" width="110" height="40" as="geometry"/>
                </mxCell>
                <mxCell id="21" style="rounded=0;orthogonalLoop=1;jettySize=auto;html=1;exitX=0;exitY=0.5;exitDx=0;exitDy=0;fontColor=#330000;edgeStyle=orthogonalEdgeStyle;strokeColor=#330000;endArrow=none;endFill=0;" edge="1" parent="1" source="19" target="3">
                    <mxGeometry relative="1" as="geometry"/>
                </mxCell>
                <mxCell id="19" value="Arudino" style="rounded=0;whiteSpace=wrap;html=1;fillColor=#dae8fc;strokeColor=#6c8ebf;fontColor=#330000;" vertex="1" parent="1">
                    <mxGeometry x="230" y="172.5" width="120" height="25" as="geometry"/>
                </mxCell>
                <mxCell id="22" value="Circuit" style="rounded=0;whiteSpace=wrap;html=1;fillColor=#dae8fc;strokeColor=#6c8ebf;fontColor=#330000;" vertex="1" parent="1">
                    <mxGeometry x="230" y="210" width="120" height="25" as="geometry"/>
                </mxCell>
                <mxCell id="23" style="rounded=0;orthogonalLoop=1;jettySize=auto;html=1;exitX=0;exitY=0.5;exitDx=0;exitDy=0;fontColor=#330000;edgeStyle=orthogonalEdgeStyle;strokeColor=#330000;endArrow=none;endFill=0;" edge="1" parent="1">
                    <mxGeometry relative="1" as="geometry">
                        <mxPoint x="230" y="224.5" as="sourcePoint"/>
                        <mxPoint x="180" y="224.5" as="targetPoint"/>
                    </mxGeometry>
                </mxCell>
                <mxCell id="24" value="Circuit" style="rounded=0;whiteSpace=wrap;html=1;fillColor=#dae8fc;strokeColor=#6c8ebf;fontColor=#330000;" vertex="1" parent="1">
                    <mxGeometry x="230" y="292.5" width="120" height="25" as="geometry"/>
                </mxCell>
                <mxCell id="25" style="rounded=0;orthogonalLoop=1;jettySize=auto;html=1;exitX=0;exitY=0.5;exitDx=0;exitDy=0;fontColor=#330000;edgeStyle=orthogonalEdgeStyle;strokeColor=#330000;endArrow=none;endFill=0;" edge="1" parent="1">
                    <mxGeometry relative="1" as="geometry">
                        <mxPoint x="230" y="307" as="sourcePoint"/>
                        <mxPoint x="180" y="307" as="targetPoint"/>
                    </mxGeometry>
                </mxCell>
                <mxCell id="26" value="&lt;p&gt;&lt;font color=&quot;#330000&quot;&gt;Raspberry Pi&lt;/font&gt;&lt;/p&gt;" style="rounded=0;whiteSpace=wrap;html=1;fillColor=#FFFFCC;" vertex="1" parent="1">
                    <mxGeometry x="400" y="110" width="270" height="50" as="geometry"/>
                </mxCell>
                <mxCell id="35" value="" style="shape=cylinder3;whiteSpace=wrap;html=1;boundedLbl=1;backgroundOutline=1;size=15;fillColor=#f8cecc;strokeColor=#b85450;" vertex="1" parent="1">
                    <mxGeometry x="640" y="426" width="60" height="80" as="geometry"/>
                </mxCell>
                <mxCell id="36" value="&lt;p&gt;&lt;font color=&quot;#330000&quot;&gt;Realtime Data Browser&lt;/font&gt;&lt;/p&gt;" style="rounded=0;whiteSpace=wrap;html=1;fillColor=#FFFFCC;" vertex="1" parent="1">
                    <mxGeometry x="550" y="590" width="160" height="35" as="geometry"/>
                </mxCell>
                <mxCell id="37" value="" style="shape=flexArrow;endArrow=classic;html=1;fontColor=#330000;strokeColor=#330000;entryX=0.563;entryY=-0.086;entryDx=0;entryDy=0;entryPerimeter=0;" edge="1" parent="1" target="36">
                    <mxGeometry width="50" height="50" relative="1" as="geometry">
                        <mxPoint x="670" y="520" as="sourcePoint"/>
                        <mxPoint x="700" y="590" as="targetPoint"/>
                    </mxGeometry>
                </mxCell>
                <mxCell id="39" value="&lt;p&gt;&lt;font color=&quot;#330000&quot;&gt;Operation&lt;/font&gt;&lt;/p&gt;" style="rounded=0;whiteSpace=wrap;html=1;fillColor=#FFFFCC;" vertex="1" parent="1">
                    <mxGeometry x="380" y="590" width="160" height="35" as="geometry"/>
                </mxCell>
                <mxCell id="40" value="" style="shape=flexArrow;endArrow=classic;html=1;fontColor=#330000;strokeColor=#330000;" edge="1" parent="1">
                    <mxGeometry width="50" height="50" relative="1" as="geometry">
                        <mxPoint x="510" y="580" as="sourcePoint"/>
                        <mxPoint x="540" y="440" as="targetPoint"/>
                    </mxGeometry>
                </mxCell>
                <mxCell id="41" value="" style="group" vertex="1" connectable="0" parent="1">
                    <mxGeometry x="410" y="172.5" width="65" height="333.5" as="geometry"/>
                </mxCell>
                <mxCell id="27" value="DO X" style="rounded=0;whiteSpace=wrap;html=1;fillColor=#dae8fc;strokeColor=#6c8ebf;fontColor=#330000;" vertex="1" parent="41">
                    <mxGeometry width="65" height="25" as="geometry"/>
                </mxCell>
                <mxCell id="28" value="DI X" style="rounded=0;whiteSpace=wrap;html=1;fillColor=#dae8fc;strokeColor=#6c8ebf;fontColor=#330000;" vertex="1" parent="41">
                    <mxGeometry y="37.5" width="65" height="25" as="geometry"/>
                </mxCell>
                <mxCell id="29" value="DO X" style="rounded=0;whiteSpace=wrap;html=1;fillColor=#dae8fc;strokeColor=#6c8ebf;fontColor=#330000;" vertex="1" parent="41">
                    <mxGeometry y="77.5" width="65" height="25" as="geometry"/>
                </mxCell>
                <mxCell id="30" value="DO X" style="rounded=0;whiteSpace=wrap;html=1;fillColor=#dae8fc;strokeColor=#6c8ebf;fontColor=#330000;" vertex="1" parent="41">
                    <mxGeometry y="115" width="65" height="25" as="geometry"/>
                </mxCell>
                <mxCell id="31" value="DO X" style="rounded=0;whiteSpace=wrap;html=1;fillColor=#dae8fc;strokeColor=#6c8ebf;fontColor=#330000;" vertex="1" parent="41">
                    <mxGeometry y="157.5" width="65" height="25" as="geometry"/>
                </mxCell>
                <mxCell id="32" value="DI X" style="rounded=0;whiteSpace=wrap;html=1;fillColor=#dae8fc;strokeColor=#6c8ebf;fontColor=#330000;" vertex="1" parent="41">
                    <mxGeometry y="195" width="65" height="25" as="geometry"/>
                </mxCell>
                <mxCell id="33" value="DO X" style="rounded=0;whiteSpace=wrap;html=1;fillColor=#dae8fc;strokeColor=#6c8ebf;fontColor=#330000;" vertex="1" parent="41">
                    <mxGeometry y="271" width="65" height="25" as="geometry"/>
                </mxCell>
                <mxCell id="34" value="DI X" style="rounded=0;whiteSpace=wrap;html=1;fillColor=#dae8fc;strokeColor=#6c8ebf;fontColor=#330000;" vertex="1" parent="41">
                    <mxGeometry y="308.5" width="65" height="25" as="geometry"/>
                </mxCell>
                <mxCell id="42" value="Controller" style="rounded=1;whiteSpace=wrap;html=1;fontColor=#330000;fillColor=#FFFFCC;" vertex="1" parent="1">
                    <mxGeometry x="510" y="350" width="120" height="60" as="geometry"/>
                </mxCell>
                <mxCell id="43" value="TCP/IP?" style="text;html=1;align=center;verticalAlign=middle;whiteSpace=wrap;rounded=0;fontColor=#330000;" vertex="1" parent="1">
                    <mxGeometry x="500" y="540" width="110" height="20" as="geometry"/>
                </mxCell>
                <mxCell id="44" value="TCP/IP?" style="text;html=1;align=center;verticalAlign=middle;whiteSpace=wrap;rounded=0;fontColor=#330000;" vertex="1" parent="1">
                    <mxGeometry x="640" y="540" width="110" height="20" as="geometry"/>
                </mxCell>
            </root>
        </mxGraphModel>
    </diagram>
</mxfile>